# xmcd
#
# Track frame offsets: 
#        150
#        11282
#        29452
#        47771
#        59280
#        77314
#        91623
#        110909
#        118852
#        129609
#        141211
#        156121
#        176187
#        191050
#        205456
#        216898
#
# Disc length: 3094 seconds
#
# Revision: 3
# Processed by: cddbd v1.5.2PL0 Copyright (c) Steve Scherf et al.
# Submitted via: ExactAudioCopy v0.95b4
#
DISCID=e20c1410
DTITLE=Memphis Slim - Paris Mississippi Blues Disc 1
DYEAR=2004
DGENRE=Blues
TTITLE0=Lord Have Mercy On Me
TTITLE1=Rock And Rolling The House (Live With Willie Dixon)
TTITLE2=Pigalle Love (Live With Willie Dixon)
TTITLE3=Baby Please Come Home (Live With Willie Dixon)
TTITLE4=Going Down Slow (With Roosevelt Sykes)
TTITLE5=Just Playing Boogie
TTITLE6=Mississippi Water (With Mickey Baker)
TTITLE7=Big Town Girl
TTITLE8=Paris On Rolls
TTITLE9=Wish Me Well
TTITLE10=Eagle Rock (With Roosevelt Sykes)
TTITLE11=Mr Sykes Blues (With Roosevelt Sykes)
TTITLE12=M and S Boogie (With Roosevelt Sykes)
TTITLE13=Whiskey Drinking Man
TTITLE14=The Charming Man (With Roosevelt Sykes)
TTITLE15=Three In One Boogie
EXTD=
EXTT0=
EXTT1=
EXTT2=
EXTT3=
EXTT4=
EXTT5=
EXTT6=
EXTT7=
EXTT8=
EXTT9=
EXTT10=
EXTT11=
EXTT12=
EXTT13=
EXTT14=
EXTT15=
PLAYORDER=
